<svg width="256" height="110" viewBox="0 0 256 110" fill="none" xmlns="http://www.w3.org/2000/svg">
<path d="M88.0078 89.3096V79.7708H91.7804C92.7601 79.7708 93.5386 79.9719 94.116 80.3775C94.6934 80.7831 94.9821 81.3833 94.9821 82.1847C94.9821 82.7103 94.8556 83.1516 94.5994 83.4987C94.3463 83.8491 93.9895 84.1087 93.5354 84.2839C93.0812 84.4558 92.559 84.5435 91.9686 84.5435L92.1989 84.365C92.9353 84.365 93.5451 84.4591 94.0317 84.644C94.5183 84.829 94.8816 85.1047 95.1281 85.4681C95.3747 85.8315 95.4947 86.2825 95.4947 86.8178C95.4947 87.616 95.2092 88.2324 94.6448 88.664C94.0771 89.0955 93.211 89.3129 92.0497 89.3129H88.0078V89.3096ZM88.2803 89.0501H92.1081C93.1266 89.0501 93.8987 88.8716 94.4307 88.5115C94.9627 88.1513 95.2287 87.5868 95.2287 86.8146C95.2287 86.0424 94.9627 85.4779 94.4307 85.1242C93.8987 84.7706 93.1234 84.5921 92.1081 84.5921H88.2122V84.3326H91.8356C92.7439 84.3326 93.451 84.1509 93.9538 83.7875C94.4566 83.4241 94.7097 82.8888 94.7097 82.1782C94.7097 81.4709 94.4566 80.9323 93.9538 80.5689C93.451 80.2056 92.7439 80.0239 91.8356 80.0239H88.2803V89.0501V89.0501Z" fill="#FEFEFE"/>
<path d="M98.5039 89.3128V79.1835H98.7975V89.3128H98.5039Z" fill="#FEFEFE"/>
<path d="M105.109 89.313C104.427 89.313 103.823 89.1607 103.293 88.8561C102.767 88.5515 102.348 88.1302 102.046 87.589C101.741 87.0478 101.588 86.4353 101.588 85.745C101.588 85.045 101.728 84.4325 102.01 83.901C102.293 83.3695 102.679 82.9547 103.176 82.6501C103.673 82.3455 104.229 82.1932 104.846 82.1932C105.463 82.1932 106.022 82.3422 106.519 82.6371C107.016 82.932 107.406 83.3436 107.692 83.8686C107.978 84.3936 108.121 84.9996 108.121 85.6802C108.121 85.6899 108.121 85.6996 108.121 85.7061C108.121 85.7158 108.121 85.7288 108.121 85.7482H101.734V85.489H107.968L107.857 85.6931C107.857 85.0774 107.724 84.5232 107.461 84.0339C107.198 83.5445 106.841 83.1589 106.389 82.8769C105.938 82.595 105.421 82.4557 104.84 82.4557C104.268 82.4557 103.751 82.595 103.297 82.8769C102.842 83.1589 102.484 83.5445 102.225 84.0339C101.965 84.5232 101.835 85.0774 101.835 85.6931V85.7482C101.835 86.3931 101.974 86.9635 102.257 87.4626C102.54 87.9616 102.926 88.3505 103.417 88.6325C103.907 88.9144 104.466 89.0538 105.096 89.0538C105.571 89.0538 106.019 88.963 106.441 88.7815C106.863 88.6001 107.217 88.3278 107.497 87.9649L107.689 88.1561C107.38 88.5385 106.997 88.8269 106.542 89.0214C106.1 89.2158 105.619 89.313 105.109 89.313Z" fill="#FEFEFE"/>
<path d="M114.121 82.1932C114.699 82.1932 115.196 82.3029 115.613 82.5255C116.029 82.7481 116.352 83.074 116.582 83.5063C116.811 83.9386 116.927 84.4742 116.927 85.1066V89.2396H116.656V85.1066C116.656 84.2387 116.433 83.5805 115.991 83.1288C115.548 82.6771 114.928 82.4513 114.134 82.4513C113.52 82.4513 112.991 82.5739 112.549 82.8255C112.106 83.074 111.767 83.4224 111.531 83.8677C111.296 84.3161 111.179 84.8356 111.179 85.4325V89.2396H110.908V82.2351H111.179V84.2258L111.154 84.1839C111.36 83.5708 111.719 83.0836 112.226 82.7287C112.729 82.3706 113.362 82.1932 114.121 82.1932Z" fill="#FEFEFE"/>
<path d="M123.125 89.3128C122.481 89.3128 121.902 89.1606 121.385 88.8562C120.867 88.5518 120.459 88.1308 120.162 87.59C119.864 87.0492 119.712 86.4372 119.712 85.7474C119.712 85.048 119.861 84.4359 120.162 83.9049C120.459 83.3738 120.867 82.9593 121.385 82.6549C121.902 82.3505 122.481 82.1983 123.125 82.1983C123.769 82.1983 124.345 82.3505 124.849 82.6549C125.354 82.9593 125.758 83.377 126.053 83.9049C126.347 84.4359 126.493 85.0512 126.493 85.7474C126.493 86.4372 126.344 87.0525 126.053 87.59C125.758 88.1308 125.357 88.5518 124.849 88.8562C124.345 89.1606 123.769 89.3128 123.125 89.3128ZM123.125 89.0569C123.724 89.0569 124.261 88.9177 124.736 88.636C125.212 88.3542 125.584 87.9656 125.856 87.467C126.127 86.9683 126.263 86.3983 126.263 85.7539C126.263 85.0998 126.127 84.5266 125.856 84.0344C125.584 83.5389 125.209 83.1568 124.736 82.8783C124.264 82.5999 123.724 82.4638 123.125 82.4638C122.527 82.4638 121.993 82.6031 121.52 82.8783C121.048 83.1536 120.676 83.5389 120.401 84.0344C120.126 84.5299 119.987 85.103 119.987 85.7539C119.987 86.3983 120.126 86.9683 120.401 87.467C120.676 87.9656 121.051 88.3542 121.52 88.636C121.989 88.9177 122.53 89.0569 123.125 89.0569ZM126.266 89.2739V86.6898L126.402 85.7377L126.266 84.7857V79.1835H126.538V89.2739H126.266Z" fill="#FEFEFE"/>
<path d="M132.929 89.313C132.246 89.313 131.642 89.1607 131.113 88.8561C130.586 88.5515 130.167 88.1302 129.865 87.589C129.56 87.0478 129.407 86.4353 129.407 85.745C129.407 85.045 129.547 84.4325 129.83 83.901C130.112 83.3695 130.499 82.9547 130.996 82.6501C131.493 82.3455 132.048 82.1932 132.665 82.1932C133.283 82.1932 133.841 82.3422 134.338 82.6371C134.835 82.932 135.225 83.3436 135.511 83.8686C135.797 84.3936 135.94 84.9996 135.94 85.6802C135.94 85.6899 135.94 85.6996 135.94 85.7061C135.94 85.7158 135.94 85.7288 135.94 85.7482H129.553V85.489H135.787L135.677 85.6931C135.677 85.0774 135.544 84.5232 135.28 84.0339C135.017 83.5445 134.66 83.1589 134.208 82.8769C133.757 82.595 133.24 82.4557 132.659 82.4557C132.087 82.4557 131.571 82.595 131.116 82.8769C130.661 83.1589 130.304 83.5445 130.044 84.0339C129.784 84.5232 129.654 85.0774 129.654 85.6931V85.7482C129.654 86.3931 129.794 86.9635 130.076 87.4626C130.359 87.9616 130.746 88.3505 131.236 88.6325C131.727 88.9144 132.285 89.0538 132.916 89.0538C133.39 89.0538 133.838 88.963 134.26 88.7815C134.683 88.6001 135.037 88.3278 135.316 87.9649L135.508 88.1561C135.199 88.5385 134.816 88.8269 134.361 89.0214C133.919 89.2158 133.435 89.313 132.929 89.313Z" fill="#FEFEFE"/>
<path d="M141.335 89.3128C140.691 89.3128 140.111 89.1606 139.593 88.8562C139.075 88.5518 138.668 88.1308 138.37 87.59C138.072 87.0492 137.92 86.4372 137.92 85.7474C137.92 85.048 138.069 84.4359 138.37 83.9049C138.668 83.3738 139.075 82.9593 139.593 82.6549C140.111 82.3505 140.691 82.1983 141.335 82.1983C141.979 82.1983 142.555 82.3505 143.06 82.6549C143.565 82.9593 143.969 83.377 144.264 83.9049C144.558 84.4359 144.704 85.0512 144.704 85.7474C144.704 86.4372 144.555 87.0525 144.264 87.59C143.969 88.1308 143.568 88.5518 143.06 88.8562C142.555 89.1606 141.979 89.3128 141.335 89.3128ZM141.335 89.0569C141.933 89.0569 142.471 88.9177 142.947 88.636C143.422 88.3542 143.795 87.9656 144.066 87.467C144.338 86.9683 144.474 86.3983 144.474 85.7539C144.474 85.0998 144.338 84.5266 144.066 84.0344C143.795 83.5389 143.419 83.1568 142.947 82.8783C142.474 82.5999 141.933 82.4638 141.335 82.4638C140.736 82.4638 140.202 82.6031 139.729 82.8783C139.257 83.1536 138.884 83.5389 138.609 84.0344C138.334 84.5299 138.195 85.103 138.195 85.7539C138.195 86.3983 138.334 86.9683 138.609 87.467C138.884 87.9656 139.26 88.3542 139.729 88.636C140.199 88.9177 140.736 89.0569 141.335 89.0569ZM144.474 89.2739V86.6898L144.61 85.7377L144.474 84.7857V79.1835H144.746V89.2739H144.474Z" fill="#FEFEFE"/>
<path d="M153.263 89.3064V79.7708H156.488C157.27 79.7708 157.937 79.8973 158.498 80.147C159.056 80.3968 159.484 80.7535 159.785 81.2173C160.083 81.6812 160.236 82.2455 160.236 82.9072C160.236 83.5623 160.087 84.1234 159.785 84.5905C159.484 85.0575 159.056 85.4175 158.498 85.6673C157.941 85.917 157.27 86.0435 156.488 86.0435H153.412L153.535 85.9203V89.3129H153.263V89.3064ZM153.535 85.8878L153.412 85.7776H156.517C157.633 85.7776 158.488 85.5246 159.078 85.0218C159.668 84.5191 159.963 83.8121 159.963 82.9039C159.963 81.986 159.668 81.279 159.078 80.7795C158.488 80.28 157.636 80.0303 156.517 80.0303H153.412L153.535 79.92V85.8878Z" fill="#FEFEFE"/>
<path d="M164.819 89.313C164.249 89.313 163.711 89.2223 163.212 89.0409C162.713 88.8595 162.331 88.6295 162.068 88.3477L162.23 88.1307C162.483 88.3769 162.839 88.5907 163.293 88.7785C163.746 88.9632 164.255 89.0571 164.816 89.0571C165.651 89.0571 166.247 88.9114 166.61 88.6231C166.973 88.3315 167.154 87.9558 167.154 87.4926C167.154 87.1557 167.067 86.8933 166.895 86.6957C166.724 86.5014 166.494 86.3524 166.209 86.2455C165.923 86.1386 165.606 86.0576 165.263 85.9928C164.919 85.928 164.573 85.86 164.229 85.7887C163.886 85.7175 163.568 85.6138 163.283 85.481C162.998 85.3482 162.768 85.1668 162.596 84.9368C162.425 84.7068 162.337 84.3958 162.337 84.0039C162.337 83.6865 162.425 83.3917 162.596 83.1196C162.768 82.8475 163.037 82.624 163.406 82.4523C163.772 82.2806 164.249 82.1932 164.828 82.1932C165.263 82.1932 165.693 82.258 166.121 82.3908C166.549 82.5236 166.892 82.6985 167.154 82.9155L166.992 83.1325C166.711 82.9058 166.38 82.7374 165.998 82.624C165.616 82.5106 165.227 82.4523 164.828 82.4523C164.057 82.4523 163.497 82.6013 163.147 82.9026C162.797 83.2038 162.622 83.5698 162.622 84.0039C162.622 84.3473 162.71 84.6226 162.881 84.8267C163.053 85.0307 163.283 85.1862 163.568 85.2964C163.853 85.4065 164.168 85.4907 164.514 85.5555C164.858 85.6203 165.201 85.6883 165.541 85.7596C165.881 85.8308 166.196 85.9312 166.481 86.0576C166.766 86.1839 166.996 86.3588 167.167 86.5823C167.339 86.8058 167.427 87.1071 167.427 87.4861C167.427 87.8392 167.333 88.1566 167.142 88.4319C166.95 88.7073 166.662 88.9243 166.277 89.0798C165.894 89.2385 165.408 89.313 164.819 89.313Z" fill="#FEFEFE"/>
<path d="M169.391 91.9549C169.083 91.9549 168.797 91.9032 168.541 91.7998C168.281 91.6964 168.058 91.5381 167.866 91.3313L168.071 91.1149C168.262 91.3152 168.46 91.4606 168.671 91.5575C168.878 91.6512 169.125 91.6996 169.407 91.6996C169.751 91.6996 170.062 91.6027 170.335 91.4089C170.607 91.215 170.867 90.8532 171.11 90.3298L171.629 89.1894L171.697 89.0957L174.818 82.2692H175.133L171.386 90.4106C171.214 90.7918 171.026 91.0923 170.822 91.3184C170.617 91.5446 170.4 91.7061 170.166 91.8062C169.926 91.9064 169.67 91.9549 169.391 91.9549ZM171.678 89.4317L168.366 82.266H168.68L171.801 89.0924L171.678 89.4317Z" fill="#FEFEFE"/>
<path d="M179.782 89.313C179.117 89.313 178.521 89.1606 177.997 88.8559C177.473 88.5511 177.059 88.1329 176.759 87.5979C176.46 87.0629 176.307 86.4437 176.307 85.7466C176.307 85.0495 176.456 84.4303 176.759 83.8953C177.062 83.3603 177.473 82.9421 177.997 82.6438C178.521 82.3455 179.117 82.1932 179.782 82.1932C180.293 82.1932 180.769 82.2872 181.212 82.4785C181.655 82.6698 182.026 82.9551 182.325 83.3377L182.133 83.5419C181.86 83.1691 181.518 82.8935 181.107 82.7184C180.697 82.5433 180.254 82.4525 179.782 82.4525C179.17 82.4525 178.622 82.592 178.14 82.8675C177.655 83.1431 177.277 83.529 176.997 84.025C176.72 84.5211 176.58 85.0949 176.58 85.7466C176.58 86.3983 176.72 86.9754 176.997 87.4682C177.274 87.9643 177.655 88.3501 178.14 88.6322C178.622 88.9142 179.17 89.0536 179.782 89.0536C180.257 89.0536 180.697 88.9629 181.107 88.7813C181.518 88.5997 181.86 88.3274 182.133 87.9643L182.325 88.1685C182.026 88.5511 181.651 88.8364 181.212 89.0277C180.769 89.219 180.293 89.313 179.782 89.313Z" fill="#FEFEFE"/>
<path d="M188.184 82.2132C188.762 82.2132 189.259 82.3237 189.675 82.548C190.091 82.7723 190.414 83.1006 190.643 83.5362C190.872 83.9718 190.989 84.5114 190.989 85.1486V89.3128H190.717V85.1486C190.717 84.2741 190.495 83.611 190.053 83.1559C189.611 82.7008 188.991 82.4732 188.197 82.4732C187.584 82.4732 187.055 82.5968 186.612 82.8503C186.17 83.1006 185.831 83.4517 185.596 83.9003C185.36 84.3521 185.244 84.8755 185.244 85.4769V89.3128H184.97V79.1835H185.241V84.2611L185.215 84.2189C185.422 83.6012 185.78 83.1104 186.286 82.7528C186.79 82.392 187.422 82.2132 188.184 82.2132Z" fill="#FEFEFE"/>
<path d="M197.117 89.313C196.463 89.313 195.88 89.1607 195.369 88.8561C194.858 88.5515 194.453 88.1302 194.152 87.589C193.851 87.0478 193.702 86.4353 193.702 85.745C193.702 85.045 193.851 84.4325 194.152 83.901C194.45 83.3695 194.858 82.9547 195.369 82.6501C195.88 82.3455 196.463 82.1932 197.117 82.1932C197.771 82.1932 198.353 82.3455 198.871 82.6501C199.389 82.9547 199.794 83.3728 200.088 83.901C200.383 84.4325 200.528 85.0482 200.528 85.745C200.528 86.4353 200.38 87.051 200.088 87.589C199.794 88.1302 199.389 88.5515 198.871 88.8561C198.357 89.1607 197.771 89.313 197.117 89.313ZM197.117 89.057C197.716 89.057 198.253 88.9177 198.729 88.6357C199.205 88.3538 199.577 87.9649 199.849 87.4658C200.121 86.9667 200.257 86.3964 200.257 85.7515C200.257 85.0968 200.121 84.5232 199.849 84.0306C199.577 83.5348 199.201 83.1524 198.729 82.8737C198.256 82.595 197.716 82.4589 197.117 82.4589C196.518 82.4589 195.984 82.5983 195.511 82.8737C195.039 83.1492 194.667 83.5348 194.392 84.0306C194.116 84.5265 193.977 85.1001 193.977 85.7515C193.977 86.3964 194.116 86.9667 194.392 87.4658C194.667 87.9649 195.042 88.3538 195.511 88.6357C195.981 88.9177 196.521 89.057 197.117 89.057Z" fill="#FEFEFE"/>
<path d="M202.144 82.515V82.2566H206.196V82.515H202.144ZM205.234 89.313C204.675 89.313 204.25 89.1547 203.955 88.838C203.661 88.5214 203.517 88.1046 203.517 87.5909V80.7251H203.792V87.523C203.792 88.0206 203.916 88.4018 204.162 88.6635C204.41 88.9253 204.77 89.0577 205.247 89.0577C205.725 89.0577 206.117 88.9123 206.428 88.6248L206.621 88.8154C206.457 88.9866 206.248 89.1126 205.996 89.1966C205.744 89.2742 205.489 89.313 205.234 89.313Z" fill="#FEFEFE"/>
<path d="M212.402 82.2132C212.98 82.2132 213.478 82.3237 213.894 82.548C214.311 82.7723 214.634 83.1006 214.863 83.5362C215.092 83.9718 215.208 84.5114 215.208 85.1486V89.3128H214.937V85.1486C214.937 84.2741 214.714 83.611 214.272 83.1559C213.83 82.7008 213.21 82.4732 212.415 82.4732C211.802 82.4732 211.272 82.5968 210.83 82.8503C210.387 83.1006 210.048 83.4517 209.813 83.9003C209.577 84.3521 209.461 84.8755 209.461 85.4769V89.3128H209.189V79.1835H209.461V84.2611L209.435 84.2189C209.642 83.6012 210 83.1104 210.507 82.7528C211.007 82.392 211.64 82.2132 212.402 82.2132Z" fill="#FEFEFE"/>
<path d="M221.52 89.313C220.838 89.313 220.234 89.1607 219.704 88.8561C219.178 88.5515 218.759 88.1302 218.457 87.589C218.152 87.0478 217.999 86.4353 217.999 85.745C217.999 85.045 218.139 84.4325 218.421 83.901C218.704 83.3695 219.091 82.9547 219.588 82.6501C220.085 82.3455 220.64 82.1932 221.257 82.1932C221.874 82.1932 222.433 82.3422 222.93 82.6371C223.427 82.932 223.817 83.3436 224.103 83.8686C224.389 84.3936 224.532 84.9996 224.532 85.6802C224.532 85.6899 224.532 85.6996 224.532 85.7061C224.532 85.7158 224.532 85.7288 224.532 85.7482H218.145V85.489H224.379L224.269 85.6931C224.269 85.0774 224.135 84.5232 223.872 84.0339C223.609 83.5445 223.252 83.1589 222.8 82.8769C222.349 82.595 221.832 82.4557 221.251 82.4557C220.679 82.4557 220.162 82.595 219.708 82.8769C219.253 83.1589 218.896 83.5445 218.636 84.0339C218.376 84.5232 218.246 85.0774 218.246 85.6931V85.7482C218.246 86.3931 218.386 86.9635 218.668 87.4626C218.951 87.9616 219.337 88.3505 219.828 88.6325C220.318 88.9144 220.877 89.0538 221.507 89.0538C221.982 89.0538 222.43 88.963 222.852 88.7815C223.275 88.6001 223.629 88.3278 223.908 87.9649L224.1 88.1561C223.791 88.5385 223.408 88.8269 222.953 89.0214C222.511 89.2158 222.03 89.313 221.52 89.313Z" fill="#FEFEFE"/>
<path d="M227.323 89.2364V82.2351H227.593V84.1733L227.567 84.1313C227.757 83.5186 228.088 83.0413 228.56 82.7027C229.032 82.3641 229.623 82.1932 230.333 82.1932V82.4641C230.323 82.4641 230.313 82.4641 230.297 82.4641C230.281 82.4641 230.268 82.4641 230.249 82.4641C229.414 82.4641 228.762 82.7317 228.293 83.2703C227.824 83.8089 227.593 84.5409 227.593 85.4729V89.2396H227.323V89.2364Z" fill="#FEFEFE"/>
<path d="M234.208 89.313C233.685 89.313 233.236 89.232 232.864 89.0666C232.492 88.9013 232.211 88.6711 232.017 88.3728C231.823 88.0745 231.727 87.7276 231.727 87.3385C231.727 87.0013 231.804 86.6901 231.962 86.4048C232.121 86.1195 232.379 85.886 232.744 85.7109C233.106 85.5326 233.601 85.4451 234.224 85.4451H237.032V85.7045H234.208C233.413 85.7045 232.845 85.8568 232.505 86.1616C232.166 86.4664 231.998 86.8522 231.998 87.3256C231.998 87.8508 232.192 88.2723 232.583 88.5835C232.971 88.898 233.513 89.0536 234.211 89.0536C234.89 89.0536 235.449 88.898 235.888 88.5835C236.328 88.269 236.661 87.8281 236.887 87.2575L237.022 87.4358C236.832 87.9999 236.499 88.4538 236.024 88.7975C235.546 89.1412 234.942 89.313 234.208 89.313ZM236.88 89.2741V87.5979V87.3677V84.6702C236.88 83.9342 236.69 83.3798 236.312 83.0102C235.93 82.6373 235.381 82.4525 234.657 82.4525C234.134 82.4525 233.652 82.5433 233.219 82.7249C232.786 82.9064 232.415 83.1431 232.108 83.4317L231.917 83.2404C232.253 82.9227 232.657 82.6698 233.139 82.4785C233.62 82.2872 234.121 82.1932 234.644 82.1932C235.459 82.1932 236.082 82.4007 236.512 82.8189C236.942 83.2372 237.158 83.8499 237.158 84.6572V89.2741H236.88Z" fill="#FEFEFE"/>
<path d="M240.754 91.882V82.2352H241.026V84.8133L240.89 85.7631L241.026 86.7129V91.882H240.754ZM244.165 89.2878C243.521 89.2878 242.945 89.1359 242.44 88.8323C241.932 88.5286 241.531 88.1118 241.236 87.5787C240.942 87.0457 240.793 86.4351 240.793 85.7469C240.793 85.0491 240.942 84.4353 241.236 83.9022C241.531 83.3691 241.932 82.9491 242.44 82.6487C242.948 82.345 243.525 82.1932 244.165 82.1932C244.81 82.1932 245.389 82.345 245.907 82.6487C246.425 82.9524 246.832 83.3691 247.13 83.9022C247.428 84.4353 247.58 85.0523 247.58 85.7469C247.58 86.4351 247.431 87.0457 247.13 87.5787C246.832 88.1118 246.425 88.5318 245.907 88.8323C245.389 89.1359 244.81 89.2878 244.165 89.2878ZM244.165 89.0326C244.764 89.0326 245.302 88.8936 245.777 88.619C246.253 88.3444 246.625 87.9567 246.9 87.4592C247.172 86.9617 247.308 86.3931 247.308 85.7502C247.308 85.0976 247.172 84.5257 246.9 84.0347C246.629 83.5404 246.253 83.1559 245.777 82.8748C245.302 82.5938 244.764 82.4549 244.165 82.4549C243.567 82.4549 243.029 82.5938 242.554 82.8748C242.078 83.1559 241.705 83.5436 241.434 84.0347C241.162 84.529 241.026 85.1008 241.026 85.7502C241.026 86.3931 241.162 86.9617 241.434 87.4592C241.705 87.9567 242.081 88.3444 242.554 88.619C243.029 88.8936 243.567 89.0326 244.165 89.0326Z" fill="#FEFEFE"/>
<path d="M249.766 91.9549C249.458 91.9549 249.172 91.9032 248.916 91.7998C248.656 91.6964 248.433 91.5381 248.241 91.3313L248.446 91.1149C248.637 91.3152 248.835 91.4606 249.046 91.5575C249.253 91.6512 249.5 91.6996 249.782 91.6996C250.126 91.6996 250.437 91.6027 250.71 91.4089C250.982 91.215 251.242 90.8532 251.485 90.3298L252.004 89.1894L252.072 89.0957L255.193 82.2692H255.508L251.761 90.4106C251.589 90.7918 251.401 91.0923 251.197 91.3184C250.992 91.5446 250.775 91.7061 250.541 91.8062C250.304 91.9064 250.048 91.9549 249.766 91.9549ZM252.053 89.4317L248.741 82.266H249.055L252.176 89.0924L252.053 89.4317Z" fill="#FEFEFE"/>
<path d="M121.254 34.041L108.389 55.0798L95.5236 34.041C93.9906 31.5345 91.2655 30.0053 88.3261 30.0053H88.0078L105.898 59.2616V74.7063H110.562V59.2616L128.452 30.0053C125.515 30.0053 122.787 31.5345 121.254 34.041Z" fill="#FEFEFE"/>
<path d="M187.613 32.1253L168.157 74.7062C171.146 74.7062 173.856 72.9497 175.079 70.2192L178.412 62.7647H203.342L206.675 70.2192C207.896 72.9497 210.605 74.7062 213.597 74.7062H213.666L194.21 32.1253C193.62 30.8331 192.331 30.0052 190.913 30.0052C189.492 30.0052 188.203 30.8331 187.613 32.1253ZM180.126 58.9368L190.877 34.8915L201.629 58.9368H180.126Z" fill="#FEFEFE"/>
<path d="M133.448 30.0052V74.7062H163.175C163.175 72.4497 161.349 70.6218 159.095 70.6218H138.168V34.7292C138.168 32.1188 136.056 30.0052 133.448 30.0052Z" fill="#FEFEFE"/>
<path d="M250.845 34.6672V49.929H222.872V34.6672C222.872 32.0927 220.784 30.0052 218.209 30.0052H218.147V74.7029H218.209C220.784 74.7029 222.872 72.6154 222.872 70.041V54.078H250.845V70.0442C250.845 72.6187 252.933 74.7062 255.508 74.7062V30.0052C252.93 30.0052 250.845 32.0927 250.845 34.6672Z" fill="#FEFEFE"/>
<path d="M48.9591 94.2516V94.3424C48.9753 97.177 48.2421 99.9564 46.8631 102.395L42.7488 109.498L38.7579 102.502L38.7092 102.421C37.2946 99.9759 36.5483 97.1802 36.5548 94.3359C36.545 91.4916 37.2946 88.7057 38.7092 86.2603L42.7488 79.1835L46.8631 86.2927C48.2291 88.6862 48.9591 91.4397 48.9591 94.2516Z" fill="#FEFEFE"/>
<path d="M85.5851 0.498047L81.5354 7.42897L76.5934 16.0902L66.6444 33.2763L61.7089 41.931L56.6857 50.5273L42.7585 74.7061L0 0.498047H8.01498C13.7293 0.498047 19.0478 3.58207 21.8936 8.53273L33.8771 29.2963L33.8868 29.3223L33.9095 29.3547L37.1545 34.9839L37.1707 35.0001L42.765 44.7034L58.61 17.2069L63.6818 8.44832C66.5438 3.54311 71.8428 0.501291 77.5117 0.501291H85.5851V0.498047Z" fill="#FEFEFE"/>
<path d="M38.4571 32.7942H47.1216L49.684 28.3325C50.668 26.2008 50.5641 23.7148 49.3982 21.6741L46.8359 17.1799L42.7926 10.1868L36.2097 21.6741C35.0374 23.6856 34.9172 26.1585 35.8688 28.3L38.4571 32.7942Z" fill="#FEFEFE"/>
</svg>
