<svg width="162" height="26" viewBox="0 0 162 26" fill="none" xmlns="http://www.w3.org/2000/svg">
<g clip-path="url(#clip0_3512_12677)">
<path d="M10.3838 5.2334H13.6743V18.638C13.6743 23.0342 11.7593 26.001 5.58299 26.001C4.45021 26.001 2.9668 25.7583 2.21162 25.4077V22.36C3.29046 22.7645 4.39627 22.8994 5.58299 22.8994C9.27801 22.8994 10.3838 21.1193 10.3838 18.638V17.1006C9.60166 18.6649 7.90249 19.528 5.55602 19.528C1.80705 19.528 0 17.1546 0 12.9471V5.2334H3.29046V12.4346C3.29046 15.1587 4.39627 16.3454 6.71577 16.3454C9.03527 16.3454 10.3838 14.6463 10.3838 12.1649V5.2334Z" fill="#FEFEFE"/>
<path d="M18.7986 16.722V0.86307L22.089 0V15.8589C22.089 17.0726 22.5206 17.4232 23.4646 17.4232C23.8961 17.4232 24.3546 17.2614 24.9749 16.722V19.6618C24.5973 20.1203 23.5994 20.6058 22.3857 20.6058C20.9563 20.6058 18.7986 19.8237 18.7986 16.722Z" fill="#FEFEFE"/>
<path d="M46.1465 16.7215V19.6613C45.7689 20.1198 44.771 20.6053 43.5573 20.6053C42.3436 20.6053 40.6175 20.0389 40.105 17.9621C39.242 19.3377 37.7046 20.6053 35.2772 20.6053C31.1507 20.6053 28.3457 17.9621 28.3457 12.8916C28.3457 7.82107 31.5013 4.9082 35.8167 4.9082C37.6237 4.9082 39.1341 5.42065 40.3478 6.31069L40.7254 5.23185H43.2606V15.8584C43.2606 17.0721 43.6922 17.4227 44.6362 17.4227C45.0677 17.4227 45.5262 17.2609 46.1465 16.7215ZM39.9702 12.7298V9.11567C38.9453 8.33351 37.7046 7.98289 36.0864 7.98289C33.1196 7.98289 31.798 9.78995 31.798 12.8916C31.798 15.8314 33.1465 17.4227 35.8167 17.4227C38.4868 17.4227 39.9702 15.4808 39.9702 12.7298Z" fill="#FEFEFE"/>
<path d="M49.7615 20.2822V0.86307L53.025 0V7.74066C53.915 5.8527 55.6411 4.90871 58.0416 4.90871C61.2781 4.90871 63.7864 7.12033 63.7864 11.6245V20.2822H60.4959V11.6245C60.4959 9.25104 59.2553 8.09129 57.0706 8.09129C54.5084 8.09129 53.0519 9.81743 53.0519 12.6763V20.2822H49.7615Z" fill="#FEFEFE"/>
<path d="M68.1426 15.8867H72.3231V20.283H68.1426V15.8867Z" fill="#FEFEFE"/>
<path d="M91.5263 12.4336C91.5263 17.5041 88.2358 20.6058 83.3001 20.6058C80.8997 20.6058 78.0678 19.6349 76.6113 18.0975V0.86307L79.9018 0V7.44398C81.0615 5.58299 83.0844 4.90871 84.8105 4.90871C88.6943 4.90871 91.5263 7.55187 91.5263 12.4336ZM88.074 12.4336C88.074 9.54772 86.7254 7.82158 83.9744 7.82158C81.4122 7.82158 79.9018 10.0332 79.9018 12.7842V16.9647C80.8997 17.5041 82.0055 17.7469 83.408 17.7469C86.6176 17.7469 88.074 15.6971 88.074 12.4336Z" fill="#FEFEFE"/>
<path d="M94.5469 12.7577C94.5469 8.09175 97.1361 4.90918 102.53 4.90918C107.924 4.90918 110.514 8.09175 110.514 12.7577C110.514 17.4237 107.924 20.6063 102.53 20.6063C97.1361 20.6063 94.5469 17.4237 94.5469 12.7577ZM107.061 12.7577C107.061 9.92578 105.821 8.09175 102.53 8.09175C99.2398 8.09175 97.9992 9.92578 97.9992 12.7577C97.9992 15.5897 99.2398 17.4237 102.53 17.4237C105.821 17.4237 107.061 15.5897 107.061 12.7577Z" fill="#FEFEFE"/>
<path d="M131.34 16.7215V19.6613C130.962 20.1198 129.964 20.6053 128.751 20.6053C127.537 20.6053 125.811 20.0389 125.298 17.9621C124.435 19.3377 122.898 20.6053 120.471 20.6053C116.344 20.6053 113.539 17.9621 113.539 12.8916C113.539 7.82107 116.695 4.9082 121.01 4.9082C122.817 4.9082 124.327 5.42065 125.541 6.31069L125.919 5.23185H128.454V15.8584C128.454 17.0721 128.886 17.4227 129.83 17.4227C130.261 17.4227 130.72 17.2609 131.34 16.7215ZM125.164 12.7298V9.11567C124.139 8.33351 122.898 7.98289 121.28 7.98289C118.313 7.98289 116.991 9.78995 116.991 12.8916C116.991 15.8314 118.34 17.4227 121.01 17.4227C123.68 17.4227 125.164 15.4808 125.164 12.7298Z" fill="#FEFEFE"/>
<path d="M134.414 5.23246H137.219L137.489 7.84864C138.622 5.61005 140.24 4.88184 142.101 4.88184C142.37 4.88184 142.991 4.93578 143.476 5.0976V8.54989C142.505 8.28018 141.669 8.28018 141.373 8.28018C139.053 8.28018 137.705 10.0872 137.705 12.7843V20.2822H134.414V5.23246Z" fill="#FEFEFE"/>
<path d="M158.284 20.6058C158.014 19.7697 157.771 18.9066 157.663 17.8278C156.504 19.8776 154.4 20.6058 152.593 20.6058C148.709 20.6058 145.877 17.9627 145.877 13.0809C145.877 8.19917 149.167 4.88174 154.103 4.88174C155.209 4.88174 156.396 5.09751 157.501 5.44813V0.86307L160.792 0V14.9958C160.792 17.1805 160.819 18.583 161.25 20.6058H158.284ZM157.501 12.7303V8.41494C156.638 7.95643 155.64 7.74066 153.995 7.74066C150.732 7.74066 149.329 9.95228 149.329 13.0809C149.329 15.9668 150.678 17.6929 153.24 17.6929C155.991 17.6929 157.501 15.4813 157.501 12.7303Z" fill="#FEFEFE"/>
</g>
<defs>
<clipPath id="clip0_3512_12677">
<rect width="161.25" height="26" fill="white"/>
</clipPath>
</defs>
</svg>
