<svg width="189" height="81" viewBox="0 0 189 81" fill="none" xmlns="http://www.w3.org/2000/svg">
<path d="M89.7903 26.5793L80.345 42.0312L70.8997 26.5793C69.7742 24.7384 67.7736 23.6152 65.6155 23.6152H65.3818L78.516 45.1026V56.4459H81.9403V45.1026L95.0745 23.6152C92.9188 23.6176 90.9158 24.7384 89.7903 26.5793Z" fill="#305971"/>
<path d="M138.593 25.1719L124.298 56.4479C126.494 56.4479 128.485 55.1578 129.384 53.1524L131.833 47.6775H150.151L152.6 53.1524C153.497 55.1578 155.488 56.4479 157.687 56.4479H157.737L143.441 25.1743C143.007 24.2253 142.06 23.6172 141.018 23.6172C139.974 23.6172 139.027 24.2253 138.593 25.1719ZM133.092 44.8637L140.992 27.2036L148.892 44.8637H133.092Z" fill="#305971"/>
<path d="M98.7588 23.6172V56.4479H120.613C120.613 54.7906 119.271 53.4481 117.614 53.4481H102.228V27.0867C102.228 25.1695 100.676 23.6172 98.7588 23.6172Z" fill="#305971"/>
<path d="M185.025 27.0395V38.2493H164.484V27.0395C164.484 25.1485 162.951 23.6152 161.06 23.6152H161.015V56.4459H161.06C162.951 56.4459 164.484 54.9127 164.484 53.0217V41.2968H185.025V53.0217C185.025 54.9127 186.558 56.4459 188.449 56.4459V23.6176C186.556 23.6176 185.025 25.1485 185.025 27.0395Z" fill="#305971"/>
<path d="M36.7266 68.856V68.9228C36.7385 71.0069 36.1996 73.0505 35.1862 74.8437L32.1626 80.0659L29.2295 74.9224L29.1938 74.8628C28.1541 73.0648 27.6057 71.0093 27.6104 68.918C27.6033 66.8268 28.1541 64.7784 29.1938 62.9805L32.1626 57.7773L35.1313 62.9042L35.1862 63.0067C36.1901 64.7641 36.7266 66.7886 36.7266 68.856Z" fill="#305971"/>
<path d="M63.639 0.00390625L60.6631 5.09495L57.0314 11.457L49.7203 24.0809L46.0934 30.4381L42.4021 36.7525L32.1675 54.5127L0.746094 0.00390625H6.63597C10.8352 0.00390625 14.7435 2.26924 16.8348 5.90571L25.641 21.1574L25.6481 21.1765L25.6648 21.2003L28.0494 25.3352L28.0613 25.3471L32.1723 32.4745L43.8161 12.2773L47.5432 5.84371C49.6464 2.24063 53.5404 0.00628951 57.7062 0.00628951H63.639V0.00390625Z" fill="#305971"/>
<path d="M28.991 23.7203H35.3531L37.2345 20.4463C37.957 18.882 37.8807 17.0578 37.0246 15.5603L35.1432 12.2624L32.1744 7.13086L27.3409 15.5603C26.4801 17.0363 26.3919 18.851 27.0905 20.4224L27.1096 20.4582L28.991 23.7203Z" fill="#305971"/>
</svg>
