<svg width="266" height="58" viewBox="0 0 266 58" fill="none" xmlns="http://www.w3.org/2000/svg">
<g clip-path="url(#clip0_119_92955)">
<path d="M23.1 11.6396H30.42V41.4596C30.42 51.2396 26.16 57.8396 12.42 57.8396C9.9 57.8396 6.6 57.2996 4.92 56.5196V49.7397C7.32 50.6397 9.78 50.9396 12.42 50.9396C20.64 50.9396 23.1 46.9796 23.1 41.4596V38.0396C21.36 41.5196 17.58 43.4396 12.36 43.4396C4.02 43.4396 0 38.1596 0 28.7996V11.6396H7.32V27.6596C7.32 33.7196 9.78 36.3596 14.94 36.3596C20.1 36.3596 23.1 32.5796 23.1 27.0596V11.6396Z" fill="#FEFEFE"/>
<path d="M41.8199 37.2V1.92L49.1399 0V35.28C49.1399 37.98 50.0999 38.76 52.1999 38.76C53.1599 38.76 54.1799 38.4 55.5599 37.2V43.74C54.7199 44.76 52.4999 45.84 49.7999 45.84C46.6199 45.84 41.8199 44.1 41.8199 37.2Z" fill="#FEFEFE"/>
<path d="M102.66 37.1999V43.7399C101.82 44.7599 99.6001 45.8399 96.9001 45.8399C94.2001 45.8399 90.3601 44.5799 89.2201 39.9599C87.3001 43.0199 83.8801 45.8399 78.4801 45.8399C69.3001 45.8399 63.0601 39.9599 63.0601 28.6799C63.0601 17.3999 70.0801 10.9199 79.6801 10.9199C83.7001 10.9199 87.0601 12.0599 89.7601 14.0399L90.6001 11.6399H96.2401V35.2799C96.2401 37.9799 97.2001 38.7599 99.3001 38.7599C100.26 38.7599 101.28 38.3999 102.66 37.1999ZM88.9201 28.3199V20.2799C86.6401 18.5399 83.8801 17.7599 80.2801 17.7599C73.6801 17.7599 70.7401 21.7799 70.7401 28.6799C70.7401 35.2199 73.7401 38.7599 79.6801 38.7599C85.6201 38.7599 88.9201 34.4399 88.9201 28.3199Z" fill="#FEFEFE"/>
<path d="M110.7 45.12V1.92L117.96 0V17.22C119.94 13.02 123.78 10.92 129.12 10.92C136.32 10.92 141.9 15.84 141.9 25.86V45.12H134.58V25.86C134.58 20.58 131.82 18 126.96 18C121.26 18 118.02 21.84 118.02 28.2V45.12H110.7Z" fill="#FEFEFE"/>
<path d="M151.59 35.3398H160.89V45.1198H151.59V35.3398Z" fill="#FEFEFE"/>
<path d="M170.59 45.1203V11.6404H176.95L177.55 17.4604C179.83 12.8404 183.85 10.8604 188.59 10.8604C193.03 10.8604 197.05 12.9004 199.21 17.4604C201.25 13.7404 204.49 10.8604 211.15 10.8604C218.95 10.8604 224.41 15.9604 224.41 26.2204V45.1203H217.09V26.0404C217.09 20.6404 214.39 18.0004 209.47 18.0004C203.77 18.0004 201.13 22.2004 201.13 27.9004V45.1203H193.81V26.0404C193.81 20.6404 191.11 18.0004 186.25 18.0004C180.55 18.0004 177.91 22.2004 177.91 28.2004V45.1203H170.59Z" fill="#FEFEFE"/>
<path d="M232.55 28.3799C232.55 18.2399 238.67 10.9199 249.23 10.9199C259.79 10.9199 265.13 17.9999 265.13 28.3799C265.13 29.5799 265.01 30.4799 264.83 31.6199H240.47C241.01 36.6599 245.45 39.2399 250.61 39.2399C254.93 39.2399 257.57 38.3999 261.05 36.5399L263.81 42.3599C260.15 44.6399 256.01 45.8399 250.07 45.8399C238.79 45.8399 232.55 38.7599 232.55 28.3799ZM257.62 25.7399C257.44 20.5199 254.8 17.5199 249.22 17.5199C243.94 17.5199 240.64 20.6399 240.64 25.7399H257.62Z" fill="#FEFEFE"/>
</g>
<defs>
<clipPath id="clip0_119_92955">
<rect width="265.12" height="57.84" fill="white"/>
</clipPath>
</defs>
</svg>
