<svg width="30" height="38" viewBox="0 0 30 38" fill="none" xmlns="http://www.w3.org/2000/svg">
<path d="M17.3234 32.1174V32.1477C17.3288 33.0951 17.0838 34.0241 16.6231 34.8393L15.2486 37.2133L13.9153 34.8751L13.899 34.848C13.4264 34.0307 13.1771 33.0962 13.1792 32.1456C13.176 31.1949 13.4264 30.2637 13.899 29.4464L15.2486 27.0811L16.5982 29.4117L16.6231 29.4583C17.0795 30.2572 17.3234 31.1775 17.3234 32.1174Z" fill="#FEFEFE"/>
<path d="M29.5576 0.817383L28.2047 3.13174L26.5538 6.02389L23.2302 11.7626L21.5814 14.6526L19.9034 17.5231L15.2508 25.5968L0.966797 0.817383H3.6443C5.55325 0.817383 7.32994 1.84719 8.28062 3.50031L12.2839 10.4336L12.2871 10.4423L12.2947 10.4532L13.3787 12.3328L13.3841 12.3382L15.253 15.5784L20.5462 6.39679L22.2405 3.47212C23.1966 1.83418 24.9668 0.818466 26.8606 0.818466H29.5576V0.817383Z" fill="#FEFEFE"/>
<path d="M13.807 11.5991H16.6991L17.5544 10.1107C17.8829 9.39962 17.8482 8.57035 17.459 7.88959L16.6037 6.39041L15.2541 4.05762L13.0569 7.88959C12.6655 8.5606 12.6254 9.38553 12.943 10.0999L12.9517 10.1162L13.807 11.5991Z" fill="#FEFEFE"/>
</svg>
