<svg width="29" height="26" viewBox="0 0 29 26" fill="none" xmlns="http://www.w3.org/2000/svg">
<path d="M13.7402 0H17.8597V16.7818C17.8597 22.2857 15.4623 26 7.72988 26C6.31169 26 4.45454 25.6961 3.50909 25.2572V21.4416C4.85968 21.9481 6.24411 22.1169 7.72988 22.1169C12.3558 22.1169 13.7402 19.8883 13.7402 16.7818V14.8572C12.761 16.8156 10.6338 17.8961 7.69605 17.8961C3.0026 17.8961 0.740234 14.9247 0.740234 9.65715V0H4.85968V9.01557C4.85968 12.426 6.24411 13.9117 9.14806 13.9117C12.0519 13.9117 13.7402 11.7844 13.7402 8.67794V0Z" fill="#0D546E"/>
<path d="M28.2599 13.3369H23.0261V18.8408H28.2599V13.3369Z" fill="#0D546E"/>
</svg>
