<svg width="25" height="24" viewBox="0 0 25 24" fill="none" xmlns="http://www.w3.org/2000/svg">
<path d="M12.2031 24.0078C5.57538 24.0078 0.203125 18.6356 0.203125 12.0078C0.203125 5.38006 5.57538 0.0078125 12.2031 0.0078125C18.8309 0.0078125 24.2031 5.38006 24.2031 12.0078C24.2031 18.6356 18.8309 24.0078 12.2031 24.0078Z" fill="#0D546E"/>
<path d="M12.8308 5.5332H14.9728V14.2602C14.9728 17.1222 13.7263 19.0542 9.70556 19.0542C8.96756 19.0542 8.00231 18.896 7.51031 18.668V16.6835C8.21231 16.9467 8.93231 17.0345 9.70556 17.0345C12.1108 17.0345 12.8308 15.8757 12.8308 14.2602V13.2597C12.3216 14.2775 11.2153 14.84 9.68756 14.84C7.24706 14.84 6.07031 13.2942 6.07031 10.5552V5.5332H8.21231V10.2215C8.21231 11.9952 8.93231 12.7677 10.4428 12.7677C11.9526 12.7677 12.8308 11.6615 12.8308 10.046V5.5332Z" fill="white"/>
<path d="M19.378 12.4707H16.6562V15.3327H19.378V12.4707Z" fill="white"/>
</svg>
