<svg width="256" height="109" viewBox="0 0 256 109" fill="none" xmlns="http://www.w3.org/2000/svg">
<path d="M88.0078 88.8118V79.2729H91.7804C92.7601 79.2729 93.5386 79.4741 94.116 79.8797C94.6934 80.2852 94.9821 80.8855 94.9821 81.6869C94.9821 82.2125 94.8556 82.6537 94.5994 83.0009C94.3463 83.3513 93.9895 83.6108 93.5354 83.7861C93.0812 83.958 92.559 84.0456 91.9686 84.0456L92.1989 83.8672C92.9353 83.8672 93.5451 83.9613 94.0317 84.1462C94.5183 84.3311 94.8816 84.6069 95.1281 84.9703C95.3747 85.3337 95.4947 85.7847 95.4947 86.32C95.4947 87.1182 95.2092 87.7346 94.6448 88.1661C94.0771 88.5976 93.211 88.815 92.0497 88.815H88.0078V88.8118ZM88.2803 88.5522H92.1081C93.1266 88.5522 93.8987 88.3738 94.4307 88.0136C94.9627 87.6535 95.2287 87.089 95.2287 86.3168C95.2287 85.5446 94.9627 84.98 94.4307 84.6264C93.8987 84.2727 93.1234 84.0943 92.1081 84.0943H88.2122V83.8347H91.8356C92.7439 83.8347 93.451 83.653 93.9538 83.2896C94.4566 82.9263 94.7097 82.3909 94.7097 81.6804C94.7097 80.9731 94.4566 80.4345 93.9538 80.0711C93.451 79.7077 92.7439 79.526 91.8356 79.526H88.2803V88.5522Z" fill="#305971"/>
<path d="M98.5034 88.8148V78.6855H98.797V88.8148H98.5034Z" fill="#305971"/>
<path d="M105.109 88.8152C104.427 88.8152 103.822 88.6629 103.293 88.3582C102.767 88.0536 102.348 87.6323 102.045 87.0911C101.74 86.5499 101.587 85.9374 101.587 85.2471C101.587 84.5471 101.727 83.9346 102.01 83.4032C102.292 82.8717 102.679 82.4569 103.176 82.1523C103.673 81.8476 104.228 81.6953 104.846 81.6953C105.463 81.6953 106.022 81.8444 106.519 82.1393C107.016 82.4342 107.405 82.8458 107.691 83.3708C107.977 83.8958 108.12 84.5018 108.12 85.1823C108.12 85.192 108.12 85.2018 108.12 85.2083C108.12 85.218 108.12 85.2309 108.12 85.2504H101.734V84.9911H107.967L107.857 85.1953C107.857 84.5795 107.724 84.0254 107.461 83.536C107.197 83.0467 106.84 82.661 106.389 82.3791C105.937 82.0972 105.421 81.9578 104.839 81.9578C104.267 81.9578 103.751 82.0972 103.296 82.3791C102.841 82.661 102.484 83.0467 102.224 83.536C101.964 84.0254 101.834 84.5795 101.834 85.1953V85.2504C101.834 85.8953 101.974 86.4656 102.257 86.9647C102.539 87.4638 102.926 87.8527 103.416 88.1346C103.907 88.4166 104.466 88.5559 105.096 88.5559C105.57 88.5559 106.018 88.4652 106.441 88.2837C106.863 88.1022 107.217 87.83 107.496 87.467L107.688 87.6582C107.379 88.0406 106.996 88.3291 106.541 88.5235C106.1 88.718 105.619 88.8152 105.109 88.8152Z" fill="#305971"/>
<path d="M114.121 81.6953C114.699 81.6953 115.196 81.805 115.613 82.0276C116.029 82.2503 116.352 82.5761 116.582 83.0085C116.811 83.4408 116.927 83.9764 116.927 84.6088V88.7418H116.656V84.6088C116.656 83.7409 116.433 83.0827 115.991 82.631C115.548 82.1793 114.928 81.9534 114.134 81.9534C113.52 81.9534 112.991 82.076 112.549 82.3277C112.106 82.5761 111.767 82.9246 111.531 83.3698C111.296 83.8183 111.179 84.3377 111.179 84.9346V88.7418H110.908V81.7373H111.179V83.7279L111.154 83.686C111.36 83.073 111.719 82.5858 112.226 82.2309C112.729 81.8728 113.362 81.6953 114.121 81.6953Z" fill="#305971"/>
<path d="M123.126 88.8148C122.482 88.8148 121.903 88.6626 121.385 88.3582C120.867 88.0538 120.46 87.6329 120.162 87.0921C119.864 86.5513 119.712 85.9393 119.712 85.2495C119.712 84.55 119.861 83.938 120.162 83.4069C120.46 82.8759 120.867 82.4614 121.385 82.157C121.903 81.8526 122.482 81.7004 123.126 81.7004C123.769 81.7004 124.345 81.8526 124.85 82.157C125.355 82.4614 125.759 82.8791 126.053 83.4069C126.348 83.938 126.493 84.5533 126.493 85.2495C126.493 85.9393 126.345 86.5545 126.053 87.0921C125.759 87.6329 125.358 88.0538 124.85 88.3582C124.345 88.6626 123.769 88.8148 123.126 88.8148ZM123.126 88.559C123.724 88.559 124.261 88.4198 124.737 88.138C125.212 87.8563 125.584 87.4677 125.856 86.969C126.128 86.4703 126.264 85.9004 126.264 85.256C126.264 84.6018 126.128 84.0287 125.856 83.5365C125.584 83.041 125.209 82.6589 124.737 82.3804C124.264 82.1019 123.724 81.9659 123.126 81.9659C122.527 81.9659 121.993 82.1052 121.521 82.3804C121.049 82.6557 120.676 83.041 120.401 83.5365C120.127 84.0319 119.987 84.6051 119.987 85.256C119.987 85.9004 120.127 86.4703 120.401 86.969C120.676 87.4677 121.052 87.8563 121.521 88.138C121.99 88.4198 122.53 88.559 123.126 88.559ZM126.267 88.776V86.1918L126.403 85.2398L126.267 84.2877V78.6855H126.539V88.776H126.267Z" fill="#305971"/>
<path d="M132.929 88.8152C132.247 88.8152 131.643 88.6629 131.113 88.3582C130.587 88.0536 130.168 87.6323 129.866 87.0911C129.56 86.5499 129.408 85.9374 129.408 85.2471C129.408 84.5471 129.547 83.9346 129.83 83.4032C130.113 82.8717 130.499 82.4569 130.996 82.1523C131.493 81.8476 132.049 81.6953 132.666 81.6953C133.283 81.6953 133.842 81.8444 134.339 82.1393C134.836 82.4342 135.226 82.8458 135.512 83.3708C135.797 83.8958 135.94 84.5018 135.94 85.1823C135.94 85.192 135.94 85.2018 135.94 85.2083C135.94 85.218 135.94 85.2309 135.94 85.2504H129.554V84.9911H135.788L135.677 85.1953C135.677 84.5795 135.544 84.0254 135.281 83.536C135.018 83.0467 134.66 82.661 134.209 82.3791C133.757 82.0972 133.241 81.9578 132.659 81.9578C132.088 81.9578 131.571 82.0972 131.116 82.3791C130.662 82.661 130.304 83.0467 130.044 83.536C129.785 84.0254 129.655 84.5795 129.655 85.1953V85.2504C129.655 85.8953 129.794 86.4656 130.077 86.9647C130.36 87.4638 130.746 87.8527 131.237 88.1346C131.727 88.4166 132.286 88.5559 132.916 88.5559C133.39 88.5559 133.839 88.4652 134.261 88.2837C134.683 88.1022 135.037 87.83 135.317 87.467L135.508 87.6582C135.2 88.0406 134.816 88.3291 134.362 88.5235C133.92 88.718 133.436 88.8152 132.929 88.8152Z" fill="#305971"/>
<path d="M141.334 88.8148C140.69 88.8148 140.111 88.6626 139.593 88.3582C139.075 88.0538 138.667 87.6329 138.369 87.0921C138.072 86.5513 137.919 85.9393 137.919 85.2495C137.919 84.55 138.068 83.938 138.369 83.4069C138.667 82.8759 139.075 82.4614 139.593 82.157C140.111 81.8526 140.69 81.7004 141.334 81.7004C141.978 81.7004 142.554 81.8526 143.059 82.157C143.564 82.4614 143.969 82.8791 144.263 83.4069C144.558 83.938 144.704 84.5533 144.704 85.2495C144.704 85.9393 144.555 86.5545 144.263 87.0921C143.969 87.6329 143.568 88.0538 143.059 88.3582C142.554 88.6626 141.978 88.8148 141.334 88.8148ZM141.334 88.559C141.933 88.559 142.47 88.4198 142.946 88.138C143.422 87.8563 143.794 87.4677 144.066 86.969C144.338 86.4703 144.474 85.9004 144.474 85.256C144.474 84.6018 144.338 84.0287 144.066 83.5365C143.794 83.041 143.419 82.6589 142.946 82.3804C142.474 82.1019 141.933 81.9659 141.334 81.9659C140.735 81.9659 140.201 82.1052 139.729 82.3804C139.256 82.6557 138.884 83.041 138.609 83.5365C138.334 84.0319 138.195 84.6051 138.195 85.256C138.195 85.9004 138.334 86.4703 138.609 86.969C138.884 87.4677 139.259 87.8563 139.729 88.138C140.198 88.4198 140.735 88.559 141.334 88.559ZM144.474 88.776V86.1918L144.61 85.2398L144.474 84.2877V78.6855H144.746V88.776H144.474Z" fill="#305971"/>
<path d="M153.263 88.8085V79.2729H156.488C157.27 79.2729 157.937 79.3994 158.498 79.6492C159.056 79.8989 159.484 80.2557 159.785 80.7195C160.083 81.1833 160.236 81.7477 160.236 82.4093C160.236 83.0645 160.087 83.6256 159.785 84.0926C159.484 84.5597 159.056 84.9197 158.498 85.1695C157.941 85.4192 157.27 85.5457 156.488 85.5457H153.412L153.535 85.4224V88.815H153.263V88.8085ZM153.535 85.39L153.412 85.2797H156.517C157.633 85.2797 158.488 85.0267 159.078 84.524C159.668 84.0213 159.963 83.3142 159.963 82.4061C159.963 81.4882 159.668 80.7811 159.078 80.2817C158.488 79.7822 157.636 79.5324 156.517 79.5324H153.412L153.535 79.4222V85.39Z" fill="#305971"/>
<path d="M164.819 88.8152C164.249 88.8152 163.711 88.7245 163.212 88.5431C162.714 88.3617 162.331 88.1317 162.069 87.8499L162.231 87.6328C162.484 87.879 162.84 88.0928 163.293 88.2807C163.747 88.4653 164.256 88.5593 164.816 88.5593C165.652 88.5593 166.248 88.4135 166.611 88.1252C166.974 87.8337 167.155 87.4579 167.155 86.9947C167.155 86.6578 167.067 86.3955 166.896 86.1979C166.724 86.0035 166.494 85.8545 166.209 85.7476C165.924 85.6407 165.606 85.5597 165.263 85.4949C164.92 85.4302 164.573 85.3621 164.23 85.2909C163.886 85.2196 163.569 85.116 163.284 84.9831C162.999 84.8503 162.769 84.6689 162.597 84.439C162.425 84.209 162.338 83.898 162.338 83.506C162.338 83.1886 162.425 82.8938 162.597 82.6217C162.769 82.3496 163.037 82.1261 163.407 81.9545C163.773 81.7828 164.249 81.6953 164.829 81.6953C165.263 81.6953 165.694 81.7601 166.122 81.8929C166.549 82.0257 166.893 82.2006 167.155 82.4177L166.993 82.6347C166.711 82.4079 166.381 82.2395 165.998 82.1261C165.616 82.0128 165.227 81.9545 164.829 81.9545C164.058 81.9545 163.497 82.1035 163.148 82.4047C162.798 82.706 162.623 83.072 162.623 83.506C162.623 83.8494 162.71 84.1247 162.882 84.3288C163.054 84.5329 163.284 84.6884 163.569 84.7985C163.854 84.9086 164.168 84.9929 164.515 85.0576C164.858 85.1224 165.202 85.1905 165.542 85.2617C165.882 85.333 166.196 85.4334 166.481 85.5597C166.766 85.6861 166.996 85.861 167.168 86.0845C167.34 86.308 167.427 86.6092 167.427 86.9882C167.427 87.3413 167.333 87.6588 167.142 87.9341C166.951 88.2094 166.663 88.4265 166.277 88.5819C165.895 88.7407 165.409 88.8152 164.819 88.8152Z" fill="#305971"/>
<path d="M169.391 91.4569C169.083 91.4569 168.797 91.4053 168.541 91.3019C168.281 91.1985 168.058 91.0402 167.866 90.8334L168.071 90.617C168.262 90.8173 168.46 90.9626 168.671 91.0596C168.878 91.1533 169.125 91.2017 169.407 91.2017C169.751 91.2017 170.062 91.1048 170.335 90.911C170.607 90.7171 170.867 90.3553 171.11 89.8319L171.629 88.6915L171.697 88.5978L174.818 81.7713H175.133L171.386 89.9127C171.214 90.2939 171.026 90.5943 170.822 90.8205C170.617 91.0466 170.4 91.2082 170.166 91.3083C169.926 91.4085 169.67 91.4569 169.391 91.4569ZM171.678 88.9338L168.366 81.7681H168.68L171.801 88.5945L171.678 88.9338Z" fill="#305971"/>
<path d="M179.782 88.8152C179.117 88.8152 178.521 88.6628 177.997 88.358C177.473 88.0533 177.059 87.635 176.759 87.1C176.46 86.5651 176.307 85.9458 176.307 85.2488C176.307 84.5517 176.456 83.9324 176.759 83.3975C177.062 82.8625 177.473 82.4443 177.997 82.146C178.521 81.8477 179.117 81.6953 179.782 81.6953C180.293 81.6953 180.769 81.7893 181.212 81.9806C181.655 82.1719 182.026 82.4572 182.325 82.8398L182.133 83.0441C181.86 82.6712 181.518 82.3956 181.107 82.2206C180.697 82.0455 180.254 81.9547 179.782 81.9547C179.17 81.9547 178.622 82.0941 178.14 82.3697C177.655 82.6453 177.277 83.0311 176.997 83.5272C176.72 84.0232 176.58 84.5971 176.58 85.2488C176.58 85.9004 176.72 86.4776 176.997 86.9704C177.274 87.4664 177.655 87.8522 178.14 88.1343C178.622 88.4164 179.17 88.5558 179.782 88.5558C180.257 88.5558 180.697 88.465 181.107 88.2834C181.518 88.1019 181.86 87.8295 182.133 87.4664L182.325 87.6707C182.026 88.0533 181.651 88.3386 181.212 88.5299C180.769 88.7211 180.293 88.8152 179.782 88.8152Z" fill="#305971"/>
<path d="M188.184 81.7152C188.761 81.7152 189.258 81.8258 189.675 82.0501C190.091 82.2744 190.414 82.6027 190.643 83.0383C190.872 83.4739 190.988 84.0135 190.988 84.6506V88.8148H190.717V84.6506C190.717 83.7762 190.494 83.113 190.052 82.6579C189.61 82.2028 188.99 81.9753 188.196 81.9753C187.583 81.9753 187.054 82.0988 186.612 82.3524C186.17 82.6027 185.831 82.9538 185.595 83.4024C185.36 83.8542 185.244 84.3776 185.244 84.979V88.8148H184.969V78.6855H185.24V83.7632L185.215 83.7209C185.421 83.1033 185.779 82.6124 186.286 82.2548C186.789 81.894 187.422 81.7152 188.184 81.7152Z" fill="#305971"/>
<path d="M197.117 88.8152C196.463 88.8152 195.88 88.6629 195.369 88.3582C194.858 88.0536 194.453 87.6323 194.152 87.0911C193.851 86.5499 193.702 85.9374 193.702 85.2471C193.702 84.5471 193.851 83.9346 194.152 83.4032C194.45 82.8717 194.858 82.4569 195.369 82.1523C195.88 81.8476 196.463 81.6953 197.117 81.6953C197.771 81.6953 198.353 81.8476 198.871 82.1523C199.389 82.4569 199.794 82.8749 200.088 83.4032C200.383 83.9346 200.528 84.5504 200.528 85.2471C200.528 85.9374 200.38 86.5531 200.088 87.0911C199.794 87.6323 199.389 88.0536 198.871 88.3582C198.357 88.6629 197.771 88.8152 197.117 88.8152ZM197.117 88.5592C197.716 88.5592 198.253 88.4198 198.729 88.1379C199.205 87.8559 199.577 87.467 199.849 86.968C200.121 86.4689 200.257 85.8985 200.257 85.2536C200.257 84.599 200.121 84.0254 199.849 83.5328C199.577 83.037 199.201 82.6546 198.729 82.3759C198.256 82.0972 197.716 81.9611 197.117 81.9611C196.518 81.9611 195.984 82.1004 195.511 82.3759C195.039 82.6513 194.667 83.037 194.392 83.5328C194.116 84.0286 193.977 84.6022 193.977 85.2536C193.977 85.8985 194.116 86.4689 194.392 86.968C194.667 87.467 195.042 87.8559 195.511 88.1379C195.981 88.4198 196.521 88.5592 197.117 88.5592Z" fill="#305971"/>
<path d="M202.144 82.017V81.7585H206.196V82.017H202.144ZM205.235 88.8149C204.675 88.8149 204.25 88.6566 203.956 88.34C203.662 88.0233 203.518 87.6065 203.518 87.0928V80.2271H203.792V87.025C203.792 87.5225 203.917 87.9038 204.162 88.1655C204.411 88.4272 204.77 88.5597 205.248 88.5597C205.725 88.5597 206.118 88.4143 206.429 88.1267L206.621 88.3174C206.458 88.4886 206.249 88.6146 205.997 88.6986C205.745 88.7761 205.49 88.8149 205.235 88.8149Z" fill="#305971"/>
<path d="M212.402 81.7152C212.98 81.7152 213.478 81.8258 213.894 82.0501C214.311 82.2744 214.634 82.6027 214.863 83.0383C215.092 83.4739 215.208 84.0135 215.208 84.6506V88.8148H214.937V84.6506C214.937 83.7762 214.714 83.113 214.272 82.6579C213.83 82.2028 213.21 81.9753 212.415 81.9753C211.802 81.9753 211.272 82.0988 210.83 82.3524C210.387 82.6027 210.048 82.9538 209.813 83.4024C209.577 83.8542 209.461 84.3776 209.461 84.979V88.8148H209.189V78.6855H209.461V83.7632L209.435 83.7209C209.642 83.1033 210 82.6124 210.507 82.2548C211.007 81.894 211.64 81.7152 212.402 81.7152Z" fill="#305971"/>
<path d="M221.52 88.8152C220.838 88.8152 220.234 88.6629 219.704 88.3582C219.178 88.0536 218.759 87.6323 218.457 87.0911C218.152 86.5499 217.999 85.9374 217.999 85.2471C217.999 84.5471 218.139 83.9346 218.421 83.4032C218.704 82.8717 219.091 82.4569 219.588 82.1523C220.085 81.8476 220.64 81.6953 221.257 81.6953C221.874 81.6953 222.433 81.8444 222.93 82.1393C223.427 82.4342 223.817 82.8458 224.103 83.3708C224.389 83.8958 224.532 84.5018 224.532 85.1823C224.532 85.192 224.532 85.2018 224.532 85.2083C224.532 85.218 224.532 85.2309 224.532 85.2504H218.145V84.9911H224.379L224.269 85.1953C224.269 84.5795 224.135 84.0254 223.872 83.536C223.609 83.0467 223.252 82.661 222.8 82.3791C222.349 82.0972 221.832 81.9578 221.251 81.9578C220.679 81.9578 220.162 82.0972 219.708 82.3791C219.253 82.661 218.896 83.0467 218.636 83.536C218.376 84.0254 218.246 84.5795 218.246 85.1953V85.2504C218.246 85.8953 218.386 86.4656 218.668 86.9647C218.951 87.4638 219.337 87.8527 219.828 88.1346C220.318 88.4166 220.877 88.5559 221.507 88.5559C221.982 88.5559 222.43 88.4652 222.852 88.2837C223.275 88.1022 223.629 87.83 223.908 87.467L224.1 87.6582C223.791 88.0406 223.408 88.3291 222.953 88.5235C222.511 88.718 222.03 88.8152 221.52 88.8152Z" fill="#305971"/>
<path d="M227.323 88.7386V81.7372H227.593V83.6754L227.567 83.6335C227.756 83.0208 228.087 82.5435 228.559 82.2049C229.031 81.8662 229.622 81.6953 230.332 81.6953V81.9662C230.323 81.9662 230.313 81.9662 230.297 81.9662C230.281 81.9662 230.268 81.9662 230.249 81.9662C229.414 81.9662 228.762 82.2339 228.293 82.7724C227.824 83.311 227.593 84.0431 227.593 84.9751V88.7418H227.323V88.7386Z" fill="#305971"/>
<path d="M234.209 88.8152C233.685 88.8152 233.236 88.7341 232.864 88.5688C232.493 88.4034 232.212 88.1732 232.018 87.8749C231.824 87.5767 231.727 87.2297 231.727 86.8407C231.727 86.5035 231.805 86.1922 231.963 85.9069C232.121 85.6216 232.38 85.3882 232.745 85.2131C233.107 85.0348 233.601 84.9472 234.225 84.9472H237.033V85.2066H234.209C233.414 85.2066 232.845 85.359 232.506 85.6638C232.166 85.9685 231.998 86.3543 231.998 86.8277C231.998 87.3529 232.192 87.7744 232.583 88.0857C232.971 88.4002 233.514 88.5558 234.212 88.5558C234.89 88.5558 235.449 88.4002 235.889 88.0857C236.328 87.7712 236.661 87.3302 236.887 86.7596L237.023 86.9379C236.832 87.5021 236.5 87.956 236.025 88.2997C235.546 88.6433 234.942 88.8152 234.209 88.8152ZM236.881 88.7763V87.1V86.8699V84.1724C236.881 83.4364 236.69 82.882 236.312 82.5124C235.931 82.1395 235.382 81.9547 234.658 81.9547C234.134 81.9547 233.653 82.0455 233.22 82.227C232.787 82.4086 232.415 82.6453 232.108 82.9338L231.918 82.7425C232.254 82.4248 232.658 82.1719 233.139 81.9806C233.621 81.7893 234.121 81.6953 234.645 81.6953C235.459 81.6953 236.083 81.9028 236.512 82.3211C236.942 82.7393 237.159 83.3521 237.159 84.1594V88.7763H236.881Z" fill="#305971"/>
<path d="M240.754 91.3842V81.7373H241.026V84.3154L240.89 85.2652L241.026 86.2151V91.3842H240.754ZM244.166 88.7899C243.522 88.7899 242.946 88.6381 242.441 88.3344C241.933 88.0307 241.531 87.614 241.237 87.0809C240.942 86.5478 240.793 85.9372 240.793 85.2491C240.793 84.5513 240.942 83.9374 241.237 83.4044C241.531 82.8713 241.933 82.4513 242.441 82.1508C242.949 81.8472 243.525 81.6953 244.166 81.6953C244.81 81.6953 245.389 81.8472 245.907 82.1508C246.425 82.4545 246.833 82.8713 247.131 83.4044C247.429 83.9374 247.581 84.5545 247.581 85.2491C247.581 85.9372 247.432 86.5478 247.131 87.0809C246.833 87.614 246.425 88.034 245.907 88.3344C245.389 88.6381 244.81 88.7899 244.166 88.7899ZM244.166 88.5347C244.765 88.5347 245.302 88.3958 245.778 88.1212C246.254 87.8466 246.626 87.4589 246.901 86.9614C247.173 86.4638 247.309 85.8952 247.309 85.2523C247.309 84.5997 247.173 84.0279 246.901 83.5368C246.629 83.0425 246.254 82.6581 245.778 82.377C245.302 82.0959 244.765 81.957 244.166 81.957C243.567 81.957 243.03 82.0959 242.554 82.377C242.078 82.6581 241.706 83.0457 241.434 83.5368C241.162 84.0311 241.026 84.6029 241.026 85.2523C241.026 85.8952 241.162 86.4638 241.434 86.9614C241.706 87.4589 242.081 87.8466 242.554 88.1212C243.03 88.3958 243.567 88.5347 244.166 88.5347Z" fill="#305971"/>
<path d="M249.766 91.4569C249.458 91.4569 249.173 91.4053 248.916 91.3019C248.657 91.1985 248.433 91.0402 248.242 90.8334L248.446 90.617C248.637 90.8173 248.835 90.9626 249.046 91.0596C249.254 91.1533 249.5 91.2017 249.783 91.2017C250.126 91.2017 250.438 91.1048 250.71 90.911C250.983 90.7171 251.242 90.3553 251.486 89.8319L252.005 88.6915L252.073 88.5978L255.194 81.7713H255.508L251.761 89.9127C251.59 90.2939 251.401 90.5943 251.197 90.8205C250.993 91.0466 250.775 91.2082 250.542 91.3083C250.305 91.4085 250.049 91.4569 249.766 91.4569ZM252.053 88.9338L248.741 81.7681H249.056L252.177 88.5945L252.053 88.9338Z" fill="#305971"/>
<path d="M121.254 33.543L108.389 54.5818L95.5236 33.543C93.9906 31.0365 91.2655 29.5073 88.3261 29.5073H88.0078L105.898 58.7636V74.2083H110.562V58.7636L128.452 29.5073C125.515 29.5073 122.787 31.0365 121.254 33.543Z" fill="#305971"/>
<path d="M187.613 31.6274L168.158 74.2083C171.147 74.2083 173.856 72.4518 175.08 69.7213L178.413 62.2668H203.343L206.676 69.7213C207.896 72.4518 210.606 74.2083 213.598 74.2083H213.666L194.211 31.6274C193.62 30.3352 192.332 29.5073 190.914 29.5073C189.492 29.5073 188.204 30.3352 187.613 31.6274ZM180.126 58.4389L190.878 34.3937L201.629 58.4389H180.126Z" fill="#305971"/>
<path d="M133.448 29.5073V74.2083H163.175C163.175 71.9518 161.349 70.1239 159.095 70.1239H138.168V34.2313C138.168 31.6209 136.056 29.5073 133.448 29.5073Z" fill="#305971"/>
<path d="M250.845 34.1693V49.4311H222.872V34.1693C222.872 31.5948 220.784 29.5073 218.209 29.5073H218.147V74.2051H218.209C220.784 74.2051 222.872 72.1176 222.872 69.5431V53.5801H250.845V69.5463C250.845 72.1208 252.933 74.2083 255.508 74.2083V29.5073C252.929 29.5073 250.845 31.5948 250.845 34.1693Z" fill="#305971"/>
<path d="M48.9591 93.7536V93.8444C48.9753 96.679 48.2421 99.4584 46.8631 101.897L42.7488 109L38.7579 102.004L38.7092 101.923C37.2946 99.4779 36.5483 96.6822 36.5548 93.8379C36.545 90.9936 37.2946 88.2077 38.7092 85.7623L42.7488 78.6855L46.8631 85.7947C48.2291 88.1882 48.9591 90.9417 48.9591 93.7536Z" fill="#305971"/>
<path d="M85.5851 0L81.5354 6.93093L76.5934 15.5922L66.6444 32.7783L61.7089 41.433L56.6857 50.0293L42.7585 74.208L0 0H8.01498C13.7293 0 19.0478 3.08402 21.8936 8.03468L33.8771 28.7983L33.8868 28.8242L33.9095 28.8567L37.1545 34.4858L37.1707 34.5021L42.765 44.2054L58.61 16.7089L63.6818 7.95028C66.5438 3.04506 71.8428 0.00324455 77.5117 0.00324455H85.5851V0Z" fill="#305971"/>
<path d="M38.4571 32.2964H47.1216L49.684 27.8347C50.668 25.7029 50.5641 23.217 49.3982 21.1763L46.8359 16.6821L42.7926 9.68896L36.2097 21.1763C35.0374 23.1878 34.9172 25.6607 35.8688 27.8022L38.4571 32.2964Z" fill="#305971"/>
</svg>
