<svg width="87" height="38" viewBox="0 0 87 38" fill="none" xmlns="http://www.w3.org/2000/svg">
<path d="M41.4462 12.8992L37.1524 19.9236L32.8586 12.8992C32.347 12.0623 31.4375 11.5518 30.4565 11.5518H30.3502L36.321 21.3198V26.4764H37.8776V21.3198L43.8483 11.5518C42.8684 11.5528 41.9578 12.0623 41.4462 12.8992Z" fill="#305971"/>
<path d="M63.6316 12.2595L57.1329 26.4774C58.1313 26.4774 59.0365 25.8909 59.4451 24.9793L60.5584 22.4904H68.8858L69.9991 24.9793C70.4066 25.8909 71.3118 26.4774 72.3113 26.4774H72.334L65.8354 12.2606C65.6381 11.8292 65.2077 11.5527 64.734 11.5527C64.2592 11.5527 63.8289 11.8292 63.6316 12.2595ZM61.1308 21.2113L64.7221 13.1831L68.3134 21.2113H61.1308Z" fill="#305971"/>
<path d="M45.5232 11.5527V26.4774H55.4582C55.4582 25.724 54.8479 25.1137 54.0945 25.1137H47.1004V13.13C47.1004 12.2584 46.3947 11.5527 45.5232 11.5527Z" fill="#305971"/>
<path d="M84.7395 13.1084V18.2043H75.4018V13.1084C75.4018 12.2488 74.7048 11.5518 73.8452 11.5518H73.8246V26.4764H73.8452C74.7048 26.4764 75.4018 25.7794 75.4018 24.9198V19.5897H84.7395V24.9198C84.7395 25.7794 85.4365 26.4764 86.2961 26.4764V11.5528C85.4354 11.5528 84.7395 12.2488 84.7395 13.1084Z" fill="#305971"/>
<path d="M17.3236 32.1179V32.1482C17.3291 33.0956 17.0841 34.0246 16.6234 34.8398L15.2489 37.2138L13.9155 34.8756L13.8993 34.8485C13.4266 34.0311 13.1773 33.0967 13.1795 32.146C13.1762 31.1954 13.4266 30.2642 13.8993 29.4469L15.2489 27.0815L16.5984 29.4122L16.6234 29.4588C17.0797 30.2577 17.3236 31.178 17.3236 32.1179Z" fill="#305971"/>
<path d="M29.5578 0.817871L28.205 3.13223L26.554 6.02437L23.2305 11.7631L21.5817 14.6531L19.9036 17.5236L15.2511 25.5973L0.967041 0.817871H3.64455C5.55349 0.817871 7.33018 1.84768 8.28086 3.5008L12.2841 10.4341L12.2874 10.4428L12.295 10.4536L13.379 12.3333L13.3844 12.3387L15.2532 15.5788L20.5464 6.39727L22.2408 3.47261C23.1969 1.83467 24.967 0.818955 26.8608 0.818955H29.5578V0.817871Z" fill="#305971"/>
<path d="M13.8072 11.5996H16.6994L17.5547 10.1112C17.8831 9.40011 17.8484 8.57084 17.4593 7.89008L16.604 6.3909L15.2544 4.05811L13.0571 7.89008C12.6658 8.56109 12.6257 9.38602 12.9433 10.1004L12.9519 10.1166L13.8072 11.5996Z" fill="#305971"/>
</svg>
